<svg width="14" height="14" viewBox="0 0 14 14" fill="none" xmlns="http://www.w3.org/2000/svg">
<path d="M12.2929 0.292893C12.6834 -0.0976311 13.3164 -0.0976311 13.707 0.292893C14.0975 0.683418 14.0975 1.31643 13.707 1.70696L8.41399 6.99992L13.707 12.2929L13.7753 12.3691C14.0957 12.7618 14.0731 13.3408 13.707 13.707C13.3408 14.0731 12.7618 14.0957 12.3691 13.7753L12.2929 13.707L6.99992 8.41399L1.70696 13.707C1.31643 14.0975 0.683418 14.0975 0.292893 13.707C-0.0976311 13.3164 -0.0976311 12.6834 0.292893 12.2929L5.58586 6.99992L0.292893 1.70696C-0.0976311 1.31643 -0.0976311 0.683418 0.292893 0.292893C0.683418 -0.0976311 1.31643 -0.0976311 1.70696 0.292893L6.99992 5.58586L12.2929 0.292893Z" fill="#FFFFF5"/>
</svg>
