<svg width="26" height="24" viewBox="0 0 26 24" fill="none" xmlns="http://www.w3.org/2000/svg">
<g opacity="0.4">
<path d="M12 2.04382C9.9794 0.750388 7.57661 0 5 0C3.48237 0 2.02341 0.260473 0.666754 0.739983C0.267162 0.881218 0 1.25901 0 1.68282V20.6828C0 21.0074 0.157571 21.3119 0.422612 21.4993C0.687653 21.6867 1.02718 21.7338 1.33325 21.6257C2.47882 21.2208 3.71255 21 5 21C7.66002 21 10.0977 21.943 12 23.5143V2.04382Z" fill="#FFFFF5"/>
<path d="M14 23.5143C15.9023 21.943 18.34 21 21 21C22.2875 21 23.5212 21.2208 24.6668 21.6257C24.9728 21.7338 25.3123 21.6867 25.5774 21.4993C25.8424 21.3119 26 21.0074 26 20.6828V1.68282C26 1.25901 25.7328 0.881218 25.3332 0.739983C23.9766 0.260473 22.5176 0 21 0C18.4234 0 16.0206 0.750388 14 2.04382V23.5143Z" fill="#FFFFF5"/>
</g>
</svg>
