<svg width="21" height="21" viewBox="0 0 21 21" fill="none" xmlns="http://www.w3.org/2000/svg">
<path d="M6.69531 11.4775C7.75162 11.4775 8.60817 12.3334 8.6084 13.3896V18.1719C8.6084 19.2283 7.75176 20.085 6.69531 20.085H1.91309C0.856728 20.0849 0 19.2283 0 18.1719V13.3896C0.000230528 12.3335 0.856871 11.4776 1.91309 11.4775H6.69531ZM18.1719 11.4775C19.2282 11.4775 20.0847 12.3334 20.085 13.3896V18.1719C20.085 19.2283 19.2283 20.085 18.1719 20.085H13.3896C12.3334 20.0847 11.4775 19.2282 11.4775 18.1719V13.3896C11.4778 12.3336 12.3336 11.4778 13.3896 11.4775H18.1719ZM6.69531 0C7.75176 0 8.6084 0.856639 8.6084 1.91309V6.69531C8.60828 7.75166 7.75168 8.6084 6.69531 8.6084H1.91309C0.856804 8.60829 0.000123174 7.75159 0 6.69531V1.91309C0 0.856704 0.856729 0.000106452 1.91309 0H6.69531ZM18.1719 0C19.2283 0 20.085 0.856639 20.085 1.91309V6.69531C20.0848 7.75166 19.2282 8.6084 18.1719 8.6084H13.3896C12.3335 8.60814 11.4777 7.75149 11.4775 6.69531V1.91309C11.4775 0.856801 12.3334 0.000263736 13.3896 0H18.1719Z" fill="#FFFFF5"/>
</svg>
