<svg width="26" height="26" viewBox="0 0 26 26" fill="none" xmlns="http://www.w3.org/2000/svg">
<g opacity="0.4">
<path fill-rule="evenodd" clip-rule="evenodd" d="M7 4C7 1.79086 8.79086 0 11 0H15C17.2091 0 19 1.79086 19 4V4.2733C20.2433 4.38712 21.4765 4.53595 22.6987 4.71882C24.6375 5.00891 26 6.69551 26 8.60758V12.6519C26 14.2667 25.0218 15.7883 23.4183 16.3214C20.1421 17.4107 16.6389 18 13 18C9.36116 18 5.85789 17.4106 2.58169 16.3214C0.978187 15.7883 0 14.2667 0 12.6518V8.60759C0 6.69551 1.36254 5.00891 3.30128 4.71882C4.52347 4.53595 5.75671 4.38712 7 4.2733V4ZM17 4V4.1211C15.6769 4.04075 14.3431 4 13 4C11.6569 4 10.3231 4.04075 9 4.1211V4C9 2.89543 9.89543 2 11 2H15C16.1046 2 17 2.89543 17 4ZM13 15C13.5523 15 14 14.5523 14 14C14 13.4477 13.5523 13 13 13C12.4477 13 12 13.4477 12 14C12 14.5523 12.4477 15 13 15Z" fill="#FFFFF5"/>
<path d="M1 21.5333V17.8052C1.29738 17.9683 1.61463 18.1075 1.95071 18.2193C5.42783 19.3753 9.14401 20 13 20C16.856 20 20.5722 19.3753 24.0493 18.2193C24.3854 18.1076 24.7026 17.9684 25 17.8053V21.5333C25 23.4692 23.6037 25.17 21.6358 25.4313C18.81 25.8064 15.9274 26 13 26C10.0726 26 7.18995 25.8064 4.36418 25.4313C2.39632 25.17 1 23.4692 1 21.5333Z" fill="#FFFFF5"/>
</g>
</svg>
