<svg width="24" height="24" viewBox="0 0 24 24" fill="none" xmlns="http://www.w3.org/2000/svg">
<path d="M8.71484 3.83187C9.24417 3.67434 9.80045 3.97541 9.95801 4.50472C10.1155 5.03405 9.81447 5.59033 9.28516 5.74789C6.80608 6.4857 5.00007 8.78337 5 11.4998C5 14.8135 7.68629 17.4998 11 17.4998C13.7166 17.4998 16.0142 15.6938 16.752 13.2146C16.9095 12.6853 17.4658 12.3844 17.9951 12.5418C18.5244 12.6993 18.8264 13.2557 18.6689 13.785C18.3828 14.7465 17.9191 15.6312 17.3184 16.4041L20.707 19.7928C21.0974 20.1833 21.0975 20.8164 20.707 21.2068C20.3166 21.5972 19.6835 21.5971 19.293 21.2068L15.9043 17.8182C14.5499 18.871 12.8491 19.4998 11 19.4998C6.58172 19.4998 3 15.9181 3 11.4998C3.00007 7.87442 5.41106 4.81514 8.71484 3.83187Z" fill="white" fill-opacity="0.5"/>
<path d="M16 2.5C16.2409 2.5 16.4574 2.6482 16.5439 2.87305L17.2402 4.68555C17.3418 4.94944 17.5506 5.15819 17.8145 5.25977L19.627 5.95605C19.8518 6.0426 20 6.25906 20 6.5C20 6.74094 19.8518 6.9574 19.627 7.04395L17.8145 7.74023C17.5506 7.84181 17.3418 8.05056 17.2402 8.31445L16.5439 10.127C16.4574 10.3518 16.2409 10.5 16 10.5C15.7591 10.5 15.5426 10.3518 15.4561 10.127L14.7598 8.31445C14.6582 8.05056 14.4494 7.84181 14.1855 7.74023L12.373 7.04395C12.1482 6.9574 12 6.74094 12 6.5C12 6.25906 12.1482 6.0426 12.373 5.95605L14.1855 5.25977C14.4494 5.15819 14.6582 4.94944 14.7598 4.68555L15.4561 2.87305C15.5426 2.6482 15.7591 2.5 16 2.5Z" fill="white" fill-opacity="0.5"/>
</svg>
