<svg width="27" height="27" viewBox="0 0 27 27" fill="none" xmlns="http://www.w3.org/2000/svg">
<path opacity="0.4" d="M11.6715 1.04228C12.4296 -0.34744 14.4251 -0.347441 15.1831 1.04228L18.0631 6.32228C18.3439 6.83712 18.8366 7.20277 19.4107 7.32247L25.2612 8.54226C26.7665 8.85613 27.3693 10.6806 26.3472 11.8295L22.2369 16.4497C21.8598 16.8735 21.6804 17.4376 21.7435 18.0014L22.4333 24.1693C22.6074 25.7255 21.0063 26.8691 19.5907 26.1996L14.2824 23.6891C13.7411 23.4331 13.1135 23.4331 12.5722 23.6891L7.26394 26.1996C5.84829 26.8691 4.2472 25.7255 4.42126 24.1693L5.11111 18.0014C5.17417 17.4376 4.99483 16.8735 4.61776 16.4497L0.507408 11.8295C-0.514709 10.6806 0.0880661 8.85613 1.59345 8.54227L7.44392 7.32247C8.01802 7.20277 8.51066 6.83712 8.79149 6.32228L11.6715 1.04228Z" fill="#FFFFF5"/>
</svg>
